<?xml version="1.0" encoding="iso-8859-1"?>

<svg version="1.1" xmlns="http://www.w3.org/2000/svg" xmlns:xlink="http://www.w3.org/1999/xlink" width="752" height="32" viewBox="0 0 752 32">
<svg id="icon-curved-arrow" max-width="800px" max-height="800px" viewBox="0 0 32 32" x="0" y="0">
<path d="M28 18c0-7.73-6.27-14-14-14s-14 6.27-14 14c0-5.523 4.477-10 10-10s10 4.477 10 10v2h-4l8 8 8-8h-4v-2z"></path>
</svg>

<svg max-height="800px" max-width="800px" version="1.1" id="earth-leaf" xmlns="http://www.w3.org/2000/svg" xmlns:xlink="http://www.w3.org/1999/xlink" 
	 viewBox="0 0 512 512" xml:space="preserve">
<path style="fill:#9EC6B6;" d="M459.661,244.991c0,127.62-102.899,231.078-229.831,231.078S0,372.611,0,244.991
	S102.899,13.913,229.831,13.913S459.661,117.37,459.661,244.991z"/>
<path style="fill:#97BAA8;" d="M405.965,96.56c33.508,40.152,53.697,91.917,53.697,148.432
	c0,127.62-102.899,231.078-229.831,231.078C102.899,476.069,0,372.611,0,244.991c0-56.514,20.189-108.28,53.697-148.432
	c50.391,24.54,110.964,38.857,176.134,38.857S355.573,121.099,405.965,96.56z"/>
<path style="fill:#8AAD99;" d="M436.397,218.041c-108.787-0.236-201.913,67.324-239.923,163.091
	c-52.688,10.862-138.346-12.656-184.782-63.218c30.372,91.884,116.552,158.155,218.139,158.155
	c42.724,0,82.716-11.735,116.988-32.154c-3.703-6.281-8.329-12.55-13.781-18.583C395.7,378.134,436.29,302.891,436.397,218.041z"/>
<path style="fill:#78A097;" d="M459.026,227.838c0.414,5.664,0.636,11.382,0.636,17.153c0,127.62-102.899,231.078-229.831,231.078
	C102.899,476.069,0,372.611,0,244.991c0-5.771,0.221-11.489,0.636-17.153c67.8,18.665,145.971,29.305,229.196,29.305
	S391.226,246.502,459.026,227.838z"/>
<path style="fill:#71968C;" d="M435.909,233.771c-40.855,9.822-85.024,16.818-131.476,20.462
	c-48.533,28.999-86.794,73.571-107.96,126.898c-52.688,10.862-138.346-12.656-184.782-63.218
	c30.372,91.884,116.552,158.155,218.139,158.155c42.724,0,82.716-11.735,116.988-32.154c-3.703-6.281-8.329-12.55-13.781-18.583
	C391.799,381.073,431.15,312.15,435.909,233.771z"/>
<path style="fill:#5B7F81;" d="M405.528,393.94c-42.16,50.221-105.217,82.128-175.697,82.128S96.293,444.161,54.133,393.94
	c50.533-23.634,110.874-37.382,175.698-37.382S354.995,370.306,405.528,393.94z"/>
<path style="fill:#517575;" d="M377.756,382.333c-44.298-16.462-94.591-25.774-147.925-25.774c-7.517,0-14.973,0.193-22.361,0.557
	c-4.051,7.782-7.732,15.793-10.996,24.016c-25.064,5.167-57.586,2.539-89.798-7.063c-18.436,5.48-36.017,12.143-52.542,19.872
	c42.16,50.219,105.217,82.128,175.697,82.128c42.725,0,82.712-11.743,116.981-32.165c-3.702-6.278-8.326-12.542-13.774-18.572
	C349.607,412.852,364.613,398.394,377.756,382.333z"/>
<path style="fill:#B1D7C5;" d="M315.303,244.991c0,127.62-38.268,231.078-85.472,231.078c-47.205,0-85.472-103.457-85.472-231.078
	s38.266-231.078,85.472-231.078C277.035,13.913,315.303,117.37,315.303,244.991z"/>
<path style="fill:#97BAA8;" d="M315.266,238.473c0.022,2.166,0.036,4.338,0.036,6.518c0,127.62-38.266,231.078-85.472,231.078
	s-85.472-103.457-85.472-231.078c0-2.18,0.013-4.352,0.036-6.518L315.266,238.473L315.266,238.473z"/>
<path style="fill:#82A390;" d="M196.474,381.132c-10.549,2.175-22.433,2.948-35.048,2.425
	c15.592,56.171,40.428,92.512,68.403,92.512c46.82,0,84.841-101.783,85.457-227.97C261.61,276.731,219.194,323.889,196.474,381.132z
	"/>
<path style="fill:#B1D7C5;" d="M156.264,362.671c-7.631-34.586-11.905-74.482-11.905-117.68c0-2.18,0.013-4.352,0.036-6.518h170.872
	c0.022,2.166,0.036,4.338,0.036,6.518c0,43.198-4.389,83.62-12.021,118.206L156.264,362.671z"/>
<path style="fill:#97BAA8;" d="M315.283,248.102c-47.843,25.522-86.735,65.762-110.711,114.743l98.71,0.354
	C310.729,329.444,315.077,290.126,315.283,248.102z"/>
<path style="fill:#CAEEC5;" d="M144.408,253.403c-0.032-2.609-0.05-5.781-0.05-8.411c0-42.485,4.116-81.684,11.516-115.888
	c24.743,4.513,50.765,6.314,77.43,6.314c24.27,0,47.782-2.554,70.489-6.314c7.244,33.94,11.51,73.887,11.51,115.888
	c0,2.63-0.017,5.754-0.049,8.363L144.408,253.403z"/>
<path style="fill:#B3DDAC;" d="M315.294,248.095c-3.172,1.692-6.31,3.442-9.402,5.262l9.361-0.002
	C315.273,251.719,315.287,249.887,315.294,248.095z"/>
<path style="fill:#7E9822;" d="M486.713,210.324c-0.18,143.28-115.784,259.183-258.21,258.871
	C228.679,325.917,344.281,210.016,486.713,210.324L486.713,210.324z"/>
<path style="fill:#B1CD3E;" d="M512,393.139c-56.801,99.909-183.316,134.56-282.576,77.391
	C286.221,370.622,412.733,335.971,512,393.139L512,393.139z"/>
<path style="fill:#677C0F;" d="M242.357,477.376c-4.355-2.118-8.672-4.391-12.934-6.846c2.439-4.291,5.015-8.451,7.704-12.498
	l99.228-27.176c5.31-1.455,10.792,1.695,12.239,7.037c1.447,5.34-1.686,10.851-6.999,12.306L242.357,477.376z"/>
</svg>
</svg>

